<svg xmlns="http://www.w3.org/2000/svg" xmlns:xlink="http://www.w3.org/1999/xlink" width="200" height="200" class="icon" p-id="1878" t="1658048166307" version="1.1" viewBox="0 0 1024 1024"><defs><style type="text/css">@font-face{font-family:feedback-iconfont;src:url(//at.alicdn.com/t/font_1031158_u69w8yhxdu.woff2?t=1630033759944) format(&quot;woff2&quot;),url(//at.alicdn.com/t/font_1031158_u69w8yhxdu.woff?t=1630033759944) format(&quot;woff&quot;),url(//at.alicdn.com/t/font_1031158_u69w8yhxdu.ttf?t=1630033759944) format(&quot;truetype&quot;)}</style></defs><path d="M408 442h480a8 8 0 0 0 8-8v-56a8 8 0 0 0-8-8H408a8 8 0 0 0-8 8v56a8 8 0 0 0 8 8z m-8 204a8 8 0 0 0 8 8h480a8 8 0 0 0 8-8v-56a8 8 0 0 0-8-8H408a8 8 0 0 0-8 8v56z m504-486H120a8 8 0 0 0-8 8v56a8 8 0 0 0 8 8h784a8 8 0 0 0 8-8v-56a8 8 0 0 0-8-8z m0 632H120a8 8 0 0 0-8 8v56a8 8 0 0 0 8 8h784a8 8 0 0 0 8-8v-56a8 8 0 0 0-8-8zM142.4 642.1L298.7 519a8.8 8.8 0 0 0 0-13.9L142.4 381.9a8.9 8.9 0 0 0-14.4 6.9v246.3a8.9 8.9 0 0 0 14.4 7z" p-id="1879"/></svg>